#define minimize_width 7
#define minimize_height 7
static unsigned char minimize_bits[] = {
  0x00, 0x00, 0x00, 0x00, 0x00, 0x7f, 0x7f, };
